<?xml version="1.0" encoding="utf-8"?>
<svg viewBox="0 0 30 30" xmlns="http://www.w3.org/2000/svg" xmlns:bx="https://boxy-svg.com">
  <defs>
    <bx:grid x="0" y="0" width="29.987" height="28.666"/>
  </defs>
  <title>Logo-Header-5</title>
  <g id="Symbols" transform="matrix(1, 0, 0, 1, 1.257816, 0.261001)">
    <g id="Logo-Header-3">
      <g id="Logo-Header-2">
        <g id="mark-2-path">
          <path class="cls-1" d="M19.52,5.65H12.84A6.91,6.91,0,0,0,5.9,12.57v6.68a6.91,6.91,0,0,0,6.91,6.91h6.68a6.91,6.91,0,0,0,6.91-6.92V12.57A6.91,6.91,0,0,0,19.52,5.65Zm-6.75,7.47A2,2,0,1,1,13,10.6,2,2,0,0,1,12.77,13.12Zm6.63,9.69a3.5,3.5,0,1,1,3.5-3.5A3.5,3.5,0,0,1,19.4,22.81Z" style="fill: rgb(255, 255, 255); stroke: rgb(0, 72, 128);"/>
        </g>
        <g id="Oval">
          <circle id="path-2" class="cls-1" cx="3.65" cy="4.06" r="2" style="fill: rgb(255, 255, 255); stroke: rgb(0, 72, 128);"/>
          <circle class="cls-1" cx="3.65" cy="4.06" r="2.75" style="fill: rgb(255, 255, 255); stroke: rgb(0, 72, 128);"/>
        </g>
      </g>
    </g>
  </g>
</svg>